<?xml version="1.0" encoding="utf-8"?>
<!-- Generator: Adobe Illustrator 16.0.0, SVG Export Plug-In . SVG Version: 6.00 Build 0)  -->
<!DOCTYPE svg PUBLIC "-//W3C//DTD SVG 1.1//EN" "http://www.w3.org/Graphics/SVG/1.1/DTD/svg11.dtd">
<svg version="1.1" id="Layer_1" xmlns="http://www.w3.org/2000/svg" xmlns:xlink="http://www.w3.org/1999/xlink" x="0px" y="0px"
	 width="100px" height="100px" viewBox="0 0 100 100" enable-background="new 0 0 100 100" xml:space="preserve">
<g>
	<path fill="#FFFFFF" d="M67.852,9.401c0,0-29.609,32.478-64.116,37.754c0,0,1.981,12.968,8.792,24.395
		c0,0,18.495-1.406,34.589,1.264c8.318,1.379,16.094,5.723,20.138,7.968c0,0,4.648-51.998,0.78-70.551
		C67.977,9.947,67.914,9.669,67.852,9.401z"/>
	<path fill="#5D8828" d="M72.608,36.109c0,0-0.274,0.124-0.784,0.349c-0.515,0.225-1.27,0.554-2.233,0.971
		c-1.916,0.814-4.656,1.944-7.973,3.205c-1.655,0.643-3.462,1.303-5.369,1.99c-1.905,0.703-3.944,1.366-6.034,2.094
		c-2.113,0.67-4.278,1.404-6.503,2.067c-2.228,0.659-4.481,1.364-6.764,1.965c-1.136,0.313-2.273,0.624-3.406,0.935
		c-1.14,0.284-2.274,0.567-3.399,0.849c-1.127,0.276-2.244,0.551-3.347,0.821c-1.112,0.239-2.21,0.48-3.289,0.714
		c-1.081,0.233-2.138,0.462-3.178,0.686c-1.043,0.193-2.068,0.382-3.061,0.564c-1.989,0.37-3.865,0.727-5.617,0.958
		c-1.742,0.259-3.341,0.494-4.757,0.705c-1.423,0.154-2.666,0.291-3.688,0.398C1.167,55.602,0,55.727,0,55.727
		s1.155-0.207,3.174-0.57c1.011-0.181,2.234-0.4,3.643-0.654c1.392-0.309,2.967-0.654,4.682-1.032
		c1.718-0.352,3.561-0.839,5.506-1.345c0.971-0.25,1.971-0.51,2.991-0.772c1.015-0.294,2.05-0.596,3.103-0.901
		c1.052-0.308,2.122-0.62,3.204-0.935c1.07-0.346,2.16-0.694,3.253-1.046c1.096-0.355,2.196-0.714,3.299-1.075
		c1.097-0.386,2.201-0.771,3.301-1.159c2.21-0.75,4.384-1.604,6.533-2.408c2.15-0.809,4.237-1.684,6.265-2.489
		c2.012-0.862,3.969-1.654,5.792-2.479c1.83-0.808,3.558-1.579,5.138-2.326c3.166-1.466,5.765-2.76,7.571-3.679
		c0.889-0.463,1.589-0.829,2.064-1.076c0.478-0.255,0.733-0.391,0.733-0.391L72.608,36.109z"/>
	<path fill="#5D8828" d="M71.209,59.312c0,0-0.246,0.072-0.708,0.209c-0.51,0.128-1.261,0.312-2.217,0.549
		c-0.931,0.207-2.014,0.396-3.28,0.646c-1.263,0.271-2.68,0.445-4.224,0.682c-1.547,0.215-3.218,0.511-4.986,0.677
		c-1.771,0.196-3.634,0.403-5.563,0.617c-1.924,0.242-3.92,0.339-5.942,0.517c-2.024,0.155-4.083,0.313-6.136,0.477
		c-2.053,0.153-4.116,0.215-6.136,0.328c-2.022,0.1-4.013,0.198-5.942,0.293c-1.924,0.103-3.784,0.189-5.554,0.214
		c-1.768,0.042-3.435,0.081-4.979,0.118c-6.159,0.15-10.269,0.246-10.269,0.246s4.088-0.425,10.215-1.066
		c1.532-0.162,3.19-0.335,4.942-0.52c1.754-0.164,3.6-0.4,5.506-0.657c1.908-0.247,3.877-0.503,5.878-0.764
		c2-0.273,4.037-0.501,6.058-0.815c2.023-0.322,4.043-0.645,6.033-0.962c1.984-0.336,3.954-0.587,5.822-0.98
		c1.878-0.36,3.69-0.708,5.412-1.044c1.729-0.301,3.319-0.719,4.802-1.05c1.475-0.348,2.845-0.631,4.009-0.981
		c1.167-0.327,2.216-0.601,3.021-0.847c0.772-0.256,1.381-0.459,1.795-0.594c0.449-0.172,0.688-0.266,0.688-0.266L71.209,59.312z"/>
	<path fill="#FFFFFF" d="M39.72,26.132v4.988c0,0,14.72-9.396,18.676-14.01l-1.86-1.99L39.72,26.132z"/>
	<g>
		<polygon fill="#FFFFFF" stroke="#FFFFFF" stroke-width="0.9155" stroke-miterlimit="10" points="24.835,30.507 37.236,22.155 
			56.264,12.923 38.879,25.013 		"/>
		<g>
			<polygon fill="#FFFFFF" points="56.373,12.605 59.414,16.418 55.715,13.241 			"/>
		</g>
	</g>
	<path fill="#FFFFFF" d="M78.792,10.231c0,0,8.243,17.14,21.208,25.055c0,0-2.635,25.277-14.285,39.781
		c0,0-9.428,3.503-10.986,4.615C74.729,79.682,80.33,22.317,78.792,10.231z"/>
	<path fill="#5D8828" d="M78.246,32.889c0,0,1.333,0.893,3.332,2.234c2.005,1.333,4.682,3.106,7.384,4.839
		c1.351,0.869,2.702,1.742,3.981,2.526c1.276,0.802,2.471,1.533,3.518,2.127c0.519,0.304,0.997,0.581,1.419,0.828
		c0.428,0.226,0.814,0.404,1.128,0.563c0.634,0.311,0.992,0.489,0.992,0.489s-0.38-0.126-1.047-0.35
		c-0.334-0.111-0.744-0.241-1.209-0.409c-0.454-0.188-0.967-0.398-1.524-0.629c-1.129-0.451-2.419-1.016-3.797-1.637
		c-1.387-0.605-2.846-1.289-4.309-1.967c-2.928-1.355-5.831-2.754-8.008-3.807c-2.174-1.061-3.623-1.769-3.623-1.769L78.246,32.889z
		"/>
	<path fill="#5D8828" d="M74.149,59.014c0,0-0.024-0.008-0.067-0.021c-0.033-0.015-0.078-0.029-0.126-0.045
		c-0.055-0.021-0.111-0.041-0.172-0.063c-0.011-0.005-0.137-0.055-0.198-0.084l-0.031-0.015c-0.012-0.008,0.021,0.015-0.159-0.088
		c-0.259-0.153-0.521-0.395-0.699-0.67c-0.091-0.136-0.163-0.276-0.215-0.415c-0.073-0.188-0.349-0.946,0.124-1.837
		c0.509-0.893,1.347-1.076,1.606-1.105l0.073-0.009c0.097-0.01,0.195-0.013,0.295-0.01l0.104,0.006l0.109,0.013
		c0.251,0.042,0.305,0.064,0.456,0.102c0.126,0.036,0.269,0.079,0.431,0.124c0.618,0.186,1.501,0.45,2.563,0.767
		c2.109,0.631,4.917,1.466,7.739,2.255c2.818,0.788,5.653,1.528,7.796,1.974c1.074,0.224,1.975,0.373,2.609,0.431
		c0.636,0.064,1,0.001,1,0.001s-0.349,0.132-0.997,0.187c-0.649,0.064-1.577,0.085-2.688,0.064c-2.218-0.041-5.17-0.241-8.113-0.495
		c-2.939-0.251-5.876-0.549-8.074-0.779c-1.094-0.113-2.005-0.21-2.642-0.273c-0.153-0.012-0.288-0.026-0.409-0.036
		c-0.094-0.009-0.247-0.021-0.166-0.002l0.075,0.008L74.466,59c0.094,0.002,0.187-0.001,0.279-0.011l0.07-0.009
		c0.256-0.028,1.097-0.211,1.604-1.104c0.474-0.889,0.193-1.646,0.121-1.833c-0.051-0.137-0.121-0.276-0.211-0.413
		c-0.179-0.274-0.438-0.514-0.693-0.667l-0.185-0.099c-0.051-0.026-0.168-0.072-0.168-0.072c-0.073-0.027-0.067-0.027-0.073-0.03
		c0.006-0.002,0.019,0,0.03,0c0.043,0.009,0.063,0.009,0.063,0.009L74.149,59.014z"/>
	<path fill="#FFFFFF" d="M69.452,1.55h7.911c0,0,0.22,65.495-5.494,79.341l-2.417,0.273C69.452,81.165,72.09,41.551,69.452,1.55z"/>
	<path fill="#FFFFFF" d="M26.888,31.038v6.872c0,0,5.566-1.2,11.868-6.257v-5.11L26.888,31.038z"/>
	<path fill="#AACF37" d="M58.793,97.49c3.676-1.415,5.271-3.168,5.88-4.744c-1.166-2.994-2.937-6.62-5.608-9.576
		c-1.526-1.692-3.377-3.074-5.36-3.895c-2.213-1.021-4.176-1.727-6.087-2.217c-3.772-0.946-6.802-0.922-7.771-0.943
		c-0.973-0.003-2.73-0.037-4.838-0.021c-2.083,0.059-4.653,0.001-6.938-0.34c-4.644-0.565-8.666-1.59-8.66-1.593
		c-0.008,0.003,4.113,0.525,8.726,0.581c2.343,0.081,4.652-0.108,6.781-0.358c2.111-0.202,3.917-0.299,4.929-0.297
		c1.912,0.056,13.08-0.464,21.284,7.113c1.941,1.984,3.463,4.191,4.677,6.329c1.01-0.941,2.144-2.499,1.906-4.641
		c-0.417-3.734-4.159-14.132-17.401-16.354c-13.245-2.224-25.579,2.993-32.207,3.215c-6.627,0.223-10.285-2.907-10.285-2.907
		S25.525,104.91,58.793,97.49z"/>
</g>
</svg>
